<?xml version="1.0" encoding="utf-8"?>
<!-- Generator: Adobe Illustrator 16.0.4, SVG Export Plug-In . SVG Version: 6.00 Build 0)  -->
<!DOCTYPE svg PUBLIC "-//W3C//DTD SVG 1.1//EN" "http://www.w3.org/Graphics/SVG/1.1/DTD/svg11.dtd">
<svg version="1.1" id="Layer_1" xmlns="http://www.w3.org/2000/svg" xmlns:xlink="http://www.w3.org/1999/xlink" x="0px" y="0px"
	 width="179.25px" height="91.801px" viewBox="0 0 179.25 91.801" enable-background="new 0 0 179.25 91.801" xml:space="preserve">
<g>
	<defs>
		<rect id="SVGID_1_" width="179.25" height="91.801"/>
	</defs>
	<clipPath id="SVGID_2_">
		<use xlink:href="#SVGID_1_"  overflow="visible"/>
	</clipPath>
	<path clip-path="url(#SVGID_2_)" fill="#010202" d="M37.948,36.32c-0.166,0-0.335-0.039-0.493-0.12
		c-4.918-2.537-8.228-4.738-10.593-8.481c-2.247-3.556-2.652-7.616-1.112-11.14C29.728,8.556,38.822,5.06,45.32,3.125
		c7.62-2.27,18.592-3.486,27.303-3.03c11.301,0.595,20.119,2.676,27.75,6.549c3.878,1.971,8.385,5.41,9.71,8.651
		c0.226,0.551-0.037,1.18-0.589,1.405c-0.549,0.226-1.18-0.038-1.404-0.589c-1.062-2.593-5.176-5.759-8.692-7.546
		C92.044,4.833,83.5,2.826,72.51,2.247C64.021,1.8,53.342,2.983,45.936,5.19c-6.112,1.82-14.651,5.076-18.233,12.299
		c-1.752,4.012,0.102,7.687,0.982,9.079c2.103,3.329,5.171,5.35,9.759,7.717c0.529,0.273,0.736,0.922,0.463,1.451
		C38.715,36.107,38.338,36.32,37.948,36.32"/>
	<path clip-path="url(#SVGID_2_)" fill="#010202" d="M68.478,41.976c-7.782,0-13.978-0.678-21.385-2.341
		c-0.581-0.13-0.946-0.707-0.816-1.287c0.131-0.581,0.708-0.946,1.287-0.816c7.243,1.626,13.302,2.289,20.914,2.289
		c7.398,0,15.795-1.09,23.038-2.992c0.575-0.152,1.165,0.193,1.315,0.769c0.151,0.575-0.192,1.164-0.769,1.315
		C84.649,40.86,76.052,41.976,68.478,41.976"/>
	<path clip-path="url(#SVGID_2_)" fill="#0B682F" d="M112.412,47.889c-0.019,0-0.036-0.001-0.056-0.001
		c-5.194-0.267-9.296-0.699-14.812-3.838c-5.791-3.557-8.409-7.814-8.272-13.417l0.008-0.103c0.566-4.668,3.267-8.616,7.807-11.417
		c4.324-2.515,8.97-3.892,13.832-4.107c6.106-0.263,12.979,1.449,17.5,4.36c4.486,2.948,7.146,7.017,7.306,11.17
		c0.401,5.524-3.148,13.095-14.48,16.133c-0.574,0.155-1.165-0.187-1.319-0.761c-0.154-0.575,0.187-1.166,0.762-1.32
		c6.289-1.686,13.438-6.347,12.887-13.933c-0.189-4.933-4.489-8.274-6.33-9.483c-4.161-2.68-10.54-4.255-16.231-4.013
		c-4.508,0.199-8.821,1.479-12.817,3.802c-3.979,2.455-6.264,5.749-6.769,9.777c-0.07,3.239,0.705,7.458,7.215,11.458
		c5.085,2.892,8.778,3.28,13.827,3.54c0.594,0.03,1.052,0.537,1.021,1.131C113.459,47.442,112.982,47.889,112.412,47.889"/>
	<path clip-path="url(#SVGID_2_)" fill="#010202" d="M20.715,59.652c0-2.03-1.036-3.065-3.108-3.065l-8.285-0.021
		c-6.215,0-9.301,2.734-9.26,8.203c-0.02,5.593,3.107,8.389,9.364,8.348h2.009c2.03,0.041,3.066,0.726,3.066,2.093
		c-0.042,1.407-1.078,2.111-3.129,2.111H3.003C1.015,77.343,0,78.421,0,80.574c0,1.926,1.015,2.879,3.024,2.858l8.39,0.021
		c6.132,0,9.218-2.774,9.259-8.285c0-5.428-3.086-8.183-9.259-8.286h-2.01c-2.133,0-3.19-0.663-3.19-1.988
		c0-1.409,1.057-2.113,3.17-2.113h8.307C19.659,62.738,20.672,61.702,20.715,59.652"/>
	<path clip-path="url(#SVGID_2_)" fill="#010202" d="M34.199,80.305V59.652c0-2.03-1.036-3.086-3.108-3.128l-3.106,0.042
		c-2.072,0.041-3.107,1.117-3.107,3.211c-0.021,2.009,0.994,3.003,3.107,3.003v17.524c0,2.113,1.035,3.148,3.148,3.148
		C33.164,83.453,34.199,82.418,34.199,80.305"/>
	<path clip-path="url(#SVGID_2_)" fill="#010202" d="M38.405,59.693v29.021c0,2.051,1.035,3.086,3.107,3.086
		c2.071,0,3.107-1.057,3.107-3.169v-5.179h7.291c6.215,0,9.322-3.169,9.322-9.528v-8.059c0-6.214-3.128-9.342-9.363-9.342H41.47
		C39.419,56.524,38.405,57.581,38.405,59.693 M51.869,62.78c2.092,0,3.149,1.016,3.149,3.003v8.267c0,2.133-1.057,3.189-3.149,3.189
		h-7.25V62.78H51.869z"/>
	<path clip-path="url(#SVGID_2_)" fill="#010202" d="M69.559,58.658c0.663,0,1.326,0.187,1.989,0.539
		c0.662,0.352,1.16,0.849,1.533,1.512c0.372,0.663,0.559,1.367,0.559,2.072c0,0.704-0.187,1.387-0.539,2.028
		c-0.373,0.663-0.87,1.161-1.533,1.513c-0.663,0.373-1.325,0.539-2.009,0.539c-0.725,0-1.409-0.166-2.05-0.539
		c-0.663-0.352-1.161-0.85-1.534-1.513c-0.373-0.642-0.538-1.324-0.538-2.028c0-0.705,0.165-1.409,0.538-2.072
		s0.871-1.16,1.534-1.512C68.171,58.845,68.855,58.658,69.559,58.658 M69.559,75.209c0.663,0,1.326,0.187,1.989,0.539
		c0.662,0.352,1.16,0.849,1.533,1.512c0.372,0.663,0.559,1.367,0.559,2.071c0,0.705-0.187,1.368-0.539,2.031
		c-0.373,0.662-0.87,1.158-1.533,1.512c-0.663,0.373-1.325,0.538-2.009,0.538c-0.725,0-1.409-0.165-2.05-0.538
		c-0.663-0.354-1.161-0.85-1.534-1.512c-0.373-0.663-0.538-1.326-0.538-2.031c0-0.704,0.165-1.408,0.538-2.071
		s0.871-1.16,1.534-1.512C68.171,75.396,68.855,75.209,69.559,75.209"/>
	<path clip-path="url(#SVGID_2_)" fill="#0B682F" d="M110.706,84.157c2.113-0.041,3.169-1.076,3.169-3.128V60.378
		c0-2.093-1.035-3.148-3.065-3.148c-2.112,0-3.148,1.056-3.148,3.148v17.524h-5.138c-2.112,0-3.148-1.057-3.148-3.189V60.336
		c0-2.093-1.036-3.148-3.107-3.148c-2.07,0-3.106,1.036-3.106,3.107l0.041,17.607h-5.158c-2.113,0-3.169-1.057-3.169-3.189V60.336
		c0-2.093-1.036-3.148-3.107-3.148c-2.072,0-3.107,1.036-3.107,3.107v14.294c0,6.358,3.107,9.527,9.321,9.527L110.706,84.157z"/>
	<path clip-path="url(#SVGID_2_)" fill="#0B682F" d="M127.34,80.968V60.315c0-2.03-1.036-3.087-3.108-3.129l-3.105,0.042
		c-2.072,0.041-3.107,1.118-3.107,3.212c-0.021,2.009,0.994,3.003,3.107,3.003v17.524c0,2.113,1.034,3.148,3.147,3.148
		C126.304,84.116,127.34,83.081,127.34,80.968"/>
	<path clip-path="url(#SVGID_2_)" fill="#0B682F" d="M152.26,60.315c0-2.03-1.036-3.066-3.108-3.066l-8.285-0.02
		c-6.215,0-9.301,2.733-9.26,8.203c-0.021,5.593,3.107,8.389,9.364,8.348h2.009c2.03,0.041,3.065,0.725,3.065,2.092
		c-0.042,1.408-1.077,2.112-3.129,2.112h-8.367c-1.989,0.021-3.005,1.099-3.005,3.253c0,1.926,1.016,2.879,3.024,2.858l8.39,0.021
		c6.133,0,9.219-2.775,9.26-8.286c0-5.427-3.086-8.182-9.26-8.286h-2.01c-2.133,0-3.189-0.663-3.189-1.987
		c0-1.409,1.057-2.113,3.17-2.113h8.307C151.203,63.401,152.218,62.365,152.26,60.315z"/>
	<path clip-path="url(#SVGID_2_)" fill="#0B682F" d="M179.25,81.092c0-2.071-1.015-3.128-3.045-3.128l-10.398-0.021
		c-2.113,0-3.17-1.056-3.17-3.169v-1.036L172,73.717c2.071,0,3.086-0.993,3.086-3.023c0-2.113-1.056-3.17-3.147-3.211l-9.302,0.041
		v-4.143l13.424,0.021c2.092-0.041,3.147-1.056,3.169-3.086c0-2.072-1.099-3.086-3.252-3.086h-16.448
		c-2.071,0-3.106,1.035-3.106,3.106v14.293c0,6.359,3.106,9.528,9.321,9.528h10.398C178.214,84.157,179.25,83.143,179.25,81.092z"/>
	<path clip-path="url(#SVGID_2_)" fill="#0B682F" d="M121.923,54.102l-10.004-6.333c-0.503-0.318-0.653-0.983-0.334-1.486
		c0.318-0.503,0.983-0.653,1.486-0.334l7.856,4.973l-1.049-5.044c-0.12-0.583,0.254-1.153,0.836-1.274
		c0.582-0.122,1.152,0.253,1.274,0.836l1.563,7.533L121.923,54.102z"/>
	<path clip-path="url(#SVGID_2_)" fill="#010202" d="M31.254,53.349l-1.679-1.255l7.399-17.198c0.235-0.547,0.868-0.798,1.415-0.564
		c0.547,0.235,0.799,0.869,0.564,1.415l-5.62,13.064L46.619,37.74c0.456-0.381,1.136-0.319,1.517,0.138
		c0.381,0.457,0.319,1.137-0.138,1.517L31.254,53.349z"/>
</g>
</svg>
